<?xml version="1.0" encoding="UTF-8"?>
<svg version="1.1" xmlns="http://www.w3.org/2000/svg" width="500" height="500" >
<path d="M0 0 C0.99 -0.33 1.98 -0.66 3 -1 C4.68545724 -1.09287771 6.374493 -1.12997204 8.0625 -1.125 C8.94035156 -1.12757813 9.81820312 -1.13015625 10.72265625 -1.1328125 C13 -1 13 -1 15 0 C14.36599455 5.30892473 13.23675062 10.26106025 11.6875 15.375 C11.48705078 16.09816406 11.28660156 16.82132813 11.08007812 17.56640625 C10.44921875 19.6484375 10.44921875 19.6484375 9 23 C6.23610756 24.40727721 4.19177164 24 1 24 C3.64 25.32 6.28 26.64 9 28 C9 28.66 9 29.32 9 30 C6.69 30 4.38 30 2 30 C4.31 31.32 6.62 32.64 9 34 C9 34.33 9 34.66 9 35 C6.36 35 3.72 35 1 35 C6.28 37.97 11.56 40.94 17 44 C17 44.66 17 45.32 17 46 C13.7 46 10.4 46 7 46 C8.39025391 46.38091797 8.39025391 46.38091797 9.80859375 46.76953125 C11.00613281 47.11371094 12.20367187 47.45789063 13.4375 47.8125 C14.63246094 48.14894531 15.82742187 48.48539063 17.05859375 48.83203125 C18.02925781 49.21746094 18.99992187 49.60289062 20 50 C20.33 50.99 20.66 51.98 21 53 C20.01 53.495 20.01 53.495 19 54 C20.71509766 54.18175781 20.71509766 54.18175781 22.46484375 54.3671875 C23.95578417 54.53597321 25.44666673 54.70527047 26.9375 54.875 C27.69224609 54.95363281 28.44699219 55.03226562 29.22460938 55.11328125 C31.15919299 55.33883808 33.08176019 55.66258974 35 56 C35.33 56.66 35.66 57.32 36 58 C35.505 58.99 35.505 58.99 35 60 C35.99 59.67 36.98 59.34 38 59 C45.05061082 58.52530541 45.05061082 58.52530541 48 60 C48 61.32 48 62.64 48 64 C50.97 64 53.94 64 57 64 C57 65.32 57 66.64 57 68 C43.3667426 71.25968109 43.3667426 71.25968109 37 72 C39.97 72.33 42.94 72.66 46 73 C41.1029284 77.8970716 34.74235556 77.22041637 28.125 77.5625 C27.34125 77.60568359 26.5575 77.64886719 25.75 77.69335938 C23.83349351 77.79853351 21.91676667 77.89967925 20 78 C20 79.32 20 80.64 20 82 C15.52745503 83.49084832 11.47254497 83.49084832 7 82 C7.165 82.61875 7.33 83.2375 7.5 83.875 C8.73384318 91.58651987 7.93045829 98.97803513 6.3125 106.5625 C6.13605957 107.41440918 5.95961914 108.26631836 5.77783203 109.14404297 C4.51915213 115.03134627 3.04755006 120.84204094 1.375 126.625 C1.16915283 127.34115479 0.96330566 128.05730957 0.7512207 128.79516602 C-0.15638626 131.7973637 -0.74878304 133.74878304 -3 136 C-2.96970703 135.40276123 -2.93941406 134.80552246 -2.90820312 134.19018555 C-2.37899077 123.54589326 -1.90014682 112.90910976 -1.875 102.25 C-1.87048828 101.45940186 -1.86597656 100.66880371 -1.86132812 99.85424805 C-1.86983971 96.63864231 -1.97583476 94.07249573 -3 91 C-3 96.94 -3 102.88 -3 109 C-5.16225365 106.83774635 -5.48594171 105.87785959 -6.25390625 103 C-6.46829346 102.19925049 -6.68268066 101.39850098 -6.90356445 100.57348633 C-7.12101318 99.72423584 -7.33846191 98.87498535 -7.5625 98 C-7.78574951 97.14237061 -8.00899902 96.28474121 -8.23901367 95.40112305 C-9.70800258 89.59176452 -10.70498001 83.99873974 -11 78 C-11.556875 78.34160156 -12.11375 78.68320312 -12.6875 79.03515625 C-18.56888751 81.48904597 -26.14742154 78.10846033 -31.75 75.875 C-36.66237729 73.71252117 -41.4365658 71.30555328 -46.1875 68.8125 C-46.84782227 68.46751465 -47.50814453 68.1225293 -48.18847656 67.76708984 C-52.87764004 65.24471991 -52.87764004 65.24471991 -54 63 C-48.80355921 64.59890486 -43.93387858 66.74138003 -39 69 C-39.74056641 68.41992188 -39.74056641 68.41992188 -40.49609375 67.828125 C-41.13675781 67.30734375 -41.77742188 66.7865625 -42.4375 66.25 C-43.39462891 65.48429687 -43.39462891 65.48429687 -44.37109375 64.703125 C-46.18810554 62.80332371 -46.60423197 61.56413092 -47 59 C-44 58 -44 58 -41.95703125 58.77734375 C-40.89548828 59.35162109 -40.89548828 59.35162109 -39.8125 59.9375 C-38.73935547 60.50791016 -38.73935547 60.50791016 -37.64453125 61.08984375 C-37.10183594 61.39019531 -36.55914062 61.69054687 -36 62 C-36.515625 61.401875 -37.03125 60.80375 -37.5625 60.1875 C-38.036875 59.465625 -38.51125 58.74375 -39 58 C-38.67 57.01 -38.34 56.02 -38 55 C-33.3817417 55.54792895 -30.01850353 57.58964488 -26.1875 60.0625 C-25.59001953 60.43955078 -24.99253906 60.81660156 -24.37695312 61.20507812 C-22.91363423 62.12989566 -21.45620477 63.06402065 -20 64 C-20.76699219 63.40703125 -21.53398438 62.8140625 -22.32421875 62.203125 C-25.3785386 59.68832734 -27.54597365 57.0850617 -30 54 C-24.57342622 54.54265738 -20.74541763 56.46365609 -16 59 C-18.64 57.02 -21.28 55.04 -24 53 C-23.67 51.35 -23.34 49.7 -23 48 C-21.68 48.33 -20.36 48.66 -19 49 C-18.67 47.68 -18.34 46.36 -18 45 C-16.35 45 -14.7 45 -13 45 C-13.33 44.01 -13.66 43.02 -14 42 C-11.525 41.505 -11.525 41.505 -9 41 C-9 40.34 -9 39.68 -9 39 C-4.38 39.66 0.24 40.32 5 41 C4.0615625 40.44570312 3.123125 39.89140625 2.15625 39.3203125 C0.93727016 38.5889246 -0.28146745 37.85713286 -1.5 37.125 C-2.12003906 36.76019531 -2.74007812 36.39539063 -3.37890625 36.01953125 C-4.95367458 35.0677482 -6.48129053 34.03889741 -8 33 C-8 32.34 -8 31.68 -8 31 C-6.35 31 -4.7 31 -3 31 C-5.31 29.68 -7.62 28.36 -10 27 C-9.67 26.34 -9.34 25.68 -9 25 C-8.01 25 -7.02 25 -6 25 C-6.9075 24.690625 -7.815 24.38125 -8.75 24.0625 C-15.41922169 19.83010931 -17.23926071 10.38976946 -19 3 C-19 2.01 -19 1.02 -19 0 C-13.606826 -2.696587 -5.71434457 -1.0000103 0 0 Z M-17 65 C-15.19038423 66.62831762 -15.19038423 66.62831762 -13 68 C-12.01 67.67 -11.02 67.34 -10 67 C-12.64738916 65.5393715 -13.89448334 65 -17 65 Z M12 71 C16 72 16 72 16 72 Z " fill="#FDFDFD" transform="translate(104,206)"/>
<path d="M0 0 C1.32 0 2.64 0 4 0 C4.29054993 5.40976306 3.47163529 9.14683518 1.375 14.125 C1.10502197 14.77968262 0.83504395 15.43436523 0.55688477 16.10888672 C-1.15368141 20.20452472 -3.07314655 24.1566274 -5.0625 28.125 C-9.37873321 37.23578251 -13 48.86582959 -13 59 C-12.443125 58.195625 -11.88625 57.39125 -11.3125 56.5625 C-8.78135513 53.75771784 -7.67420866 53.30618405 -4 53 C-1.52214277 56.66291938 -0.51035831 59.6109185 0 64 C5.95185968 59.38427208 9.90441138 54.2989904 14 48 C15.485 48.495 15.485 48.495 17 49 C16.67 53.29 16.34 57.58 16 62 C20.61491149 60.15403541 21.67909274 59.67072123 24.5625 56.125 C25.15546875 55.41601562 25.7484375 54.70703125 26.359375 53.9765625 C26.90078125 53.32429688 27.4421875 52.67203125 28 52 C30.3125 49.5 30.3125 49.5 32 48 C32.66 48 33.32 48 34 48 C34.33 47.01 34.66 46.02 35 45 C37.375 45.3125 37.375 45.3125 40 46 C42.4294516 49.6441774 42.16179575 51.71241272 42 56 C45.95479902 54.62733918 49.14066067 53.37163778 51.421875 49.73046875 C52.38732717 47.50922916 53.25202469 45.30297662 54 43 C54.99 43 55.98 43 57 43 C57 44.98 57 46.96 57 49 C57.33 48.67 57.66 48.34 58 48 C59.66617115 47.95936168 61.33388095 47.957279 63 48 C63.83819158 49.62249941 64.6704116 51.24808497 65.5 52.875 C65.9640625 53.77992188 66.428125 54.68484375 66.90625 55.6171875 C68 58 68 58 68 60 C70.79619184 57.35915215 73.04031641 54.93715383 75.125 51.6875 C76.053125 50.3571875 76.053125 50.3571875 77 49 C77.99 49 78.98 49 80 49 C79.65015815 54.59746958 75.85992893 59.14007107 72 63 C70.02 63 68.04 63 66 63 C64.02 59.37 62.04 55.74 60 52 C57.03 57.61 54.06 63.22 51 69 C50.01 69 49.02 69 48 69 C48.33 65.37 48.66 61.74 49 58 C47.535625 58.268125 46.07125 58.53625 44.5625 58.8125 C43.73878906 58.96332031 42.91507812 59.11414063 42.06640625 59.26953125 C41.38449219 59.51058594 40.70257813 59.75164062 40 60 C39.67 60.99 39.34 61.98 39 63 C36.15916359 64.42041821 34.14522722 64.31452272 31 64 C28.625 62 28.625 62 27 60 C26.154375 60.804375 25.30875 61.60875 24.4375 62.4375 C21.1268732 65.20553 18.3627317 65.91610131 14 66 C11.64046906 63.64046906 11.50858587 62.22104383 11 59 C10.50628906 59.56589844 10.01257813 60.13179688 9.50390625 60.71484375 C8.86324219 61.44832031 8.22257812 62.18179688 7.5625 62.9375 C6.92441406 63.66839844 6.28632813 64.39929688 5.62890625 65.15234375 C3.13753878 67.97828335 3.13753878 67.97828335 0.625 68.375 C-2 68 -2 68 -3.8125 65.875 C-5.12834508 62.6892698 -5.23814079 60.41335136 -5 57 C-9.21397152 60.77154077 -11.44579254 64.34254092 -13.6875 69.5 C-13.98205078 70.15097656 -14.27660156 70.80195313 -14.58007812 71.47265625 C-16.14196756 74.94742152 -17.61467704 78.45138946 -19 82 C-19.99 82 -20.98 82 -22 82 C-22.15416509 76.98963466 -21.63979368 72.62578409 -20.5 67.75 C-19.35953217 62.91918952 -19.35953217 62.91918952 -19 58 C-26.18354599 65.33971003 -30.78517899 70.49330069 -31.6328125 81.1015625 C-32.21320666 85.68297171 -33.75349867 87.75349867 -37 91 C-40.25 92 -40.25 92 -43 92 C-44 91 -44 91 -44.375 88.5 C-43.76471048 82.80396451 -40.66356911 78.08639292 -37.125 73.6484375 C-35.60130978 70.9042488 -35.60130978 70.9042488 -37.23828125 67.66796875 C-37.90763151 66.49494899 -38.60004335 65.3348494 -39.3125 64.1875 C-39.65990234 63.59001953 -40.00730469 62.99253906 -40.36523438 62.37695312 C-41.22402237 60.90642574 -42.10951589 59.45155285 -43 58 C-43.42410156 58.56589844 -43.84820312 59.13179688 -44.28515625 59.71484375 C-49.67219638 66.45160382 -49.67219638 66.45160382 -53.9375 67 C-54.948125 67 -55.95875 67 -57 67 C-59.64465038 63.8745041 -60.84414715 60.91211733 -62 57 C-62.38671875 57.5053125 -62.7734375 58.010625 -63.171875 58.53125 C-63.69265625 59.1809375 -64.2134375 59.830625 -64.75 60.5 C-65.51570313 61.47453125 -65.51570313 61.47453125 -66.296875 62.46875 C-68 64 -68 64 -72 64 C-73.97778849 57.90181883 -71.76908006 52.5048979 -69 47 C-67.09759839 44.85888004 -65.63921502 43.30929759 -63.0625 42.0625 C-59.98558456 41.96926014 -58.38446506 43.14541606 -56 45 C-56 45.99 -56 46.98 -56 48 C-58.31 47.67 -60.62 47.34 -63 47 C-66.13706517 51.09947304 -66.13706517 51.09947304 -67 56 C-66.60167969 55.4946875 -66.20335937 54.989375 -65.79296875 54.46875 C-64.99826172 53.49421875 -64.99826172 53.49421875 -64.1875 52.5 C-63.40439453 51.52546875 -63.40439453 51.52546875 -62.60546875 50.53125 C-61 49 -61 49 -58 49 C-57.01 53.62 -56.02 58.24 -55 63 C-50.80295468 60.90147734 -50.14201841 60.12995241 -47.9375 56.25 C-47.42445313 55.35667969 -46.91140625 54.46335937 -46.3828125 53.54296875 C-45.31231832 51.5743481 -44.29998412 49.57404173 -43.3125 47.5625 C-41.24299065 43.52202937 -41.24299065 43.52202937 -39 42 C-32.66666667 40.66666667 -32.66666667 40.66666667 -30 42 C-30 42.99 -30 43.98 -30 45 C-31.093125 45.061875 -32.18625 45.12375 -33.3125 45.1875 C-37.01669139 45.67333619 -37.01669139 45.67333619 -39.125 48 C-40.45040557 52.54424768 -38.94936947 55.81050765 -37 60 C-35.70512218 62.35806034 -34.35896263 64.6776148 -33 67 C-31.08122455 64.93942825 -29.16494202 62.87662937 -27.25 60.8125 C-26.71117187 60.23435547 -26.17234375 59.65621094 -25.6171875 59.06054688 C-23.20635433 56.45861107 -20.90892806 53.88239159 -18.734375 51.07421875 C-17.87585938 50.04748047 -17.87585938 50.04748047 -17 49 C-16.34 49 -15.68 49 -15 49 C-14.89171875 47.75863281 -14.7834375 46.51726562 -14.671875 45.23828125 C-14.02231947 39.42975586 -12.68094129 33.84697327 -11.25 28.1875 C-10.85010864 26.59953613 -10.85010864 26.59953613 -10.44213867 24.97949219 C-5.47920013 5.81248481 -5.47920013 5.81248481 0 0 Z M37 49 C36.67 49.66 36.34 50.32 36 51 C36.99 52.485 36.99 52.485 38 54 C38 52.35 38 50.7 38 49 C37.67 49 37.34 49 37 49 Z M32 53 C32 55.31 32 57.62 32 60 C33.32 60 34.64 60 36 60 C36.33 59.01 36.66 58.02 37 57 C35.35 55.68 33.7 54.36 32 53 Z M-18 55 C-17 57 -17 57 -17 57 Z M-15 60 C-14 62 -14 62 -14 62 Z M-36 78 C-36.680625 79.093125 -37.36125 80.18625 -38.0625 81.3125 C-38.63677734 82.23482422 -38.63677734 82.23482422 -39.22265625 83.17578125 C-40.31112074 85.17133075 -40.31112074 85.17133075 -39 88 C-38.319375 86.906875 -37.63875 85.81375 -36.9375 84.6875 C-36.55464844 84.07261719 -36.17179687 83.45773437 -35.77734375 82.82421875 C-34.68887926 80.82866925 -34.68887926 80.82866925 -36 78 Z " fill="#FCFCFC" transform="translate(399,203)"/>
<path d="M0 0 C2.27242519 4.23497422 1.64694028 8.02864837 0.375 12.5625 C-4.01544369 21.26554263 -12.79121838 27.2903876 -21.60546875 30.91796875 C-24.02282484 31.68946537 -26.10599678 31.88753267 -28.625 31.5625 C-27.42118552 29.06888429 -26.17071278 26.88106917 -24.625 24.5625 C-24.29502525 20.68529666 -24.32422064 17.7835911 -26.625 14.5625 C-29.32087803 12.46570597 -30.717944 12.56739179 -34.1875 12.75 C-37.51975039 13.53762282 -38.67870761 13.85931613 -40.625 16.5625 C-42.11231668 19.53713337 -42.0563052 21.23528843 -41.625 24.5625 C-39.85597021 27.43008182 -37.80920497 30.00125965 -35.625 32.5625 C-37.28327261 34.58452273 -38.17653066 35.47992983 -40.7890625 35.9609375 C-50.37296955 35.86966219 -58.29460182 33.60066144 -65.40625 26.87890625 C-70.00715338 22.03431095 -74.625 15.53369623 -74.625 8.5625 C-72.15497755 9.70251036 -70.17918955 10.9021651 -68 12.5625 C-62.45600068 15.84783293 -56.60521556 17.1716167 -50.1875 16.125 C-43.33143809 14.2453064 -37.64535765 9.68151706 -31.90234375 5.65234375 C-22.70237771 -0.58245338 -10.65294839 -5.83375745 0 0 Z " fill="#FDFDFD" transform="translate(133.625,163.4375)"/>
<path d="M0 0 C4.10649329 6.91152395 0.7117528 16.0183061 -1.14453125 23.35546875 C-1.57716834 25.11942135 -2.00961592 26.88342045 -2.44189453 28.64746094 C-2.66637268 29.55330933 -2.89085083 30.45915771 -3.12213135 31.39245605 C-11.19404445 61.79811332 -11.19404445 61.79811332 -13 93 C1.52077553 82.21082042 9.54249808 64.48835117 18 49 C18.58894043 47.92508301 19.17788086 46.85016602 19.78466797 45.74267578 C27.61263473 31.46781838 27.61263473 31.46781838 34.96484375 16.9453125 C35.6441394 15.54575317 35.6441394 15.54575317 36.3371582 14.11791992 C37.17352698 12.377163 37.99707646 10.63016718 38.80541992 8.8762207 C39.17127197 8.11140381 39.53712402 7.34658691 39.9140625 6.55859375 C40.2229541 5.89142334 40.5318457 5.22425293 40.85009766 4.53686523 C42.35122207 2.53058537 43.5756793 2.35994419 46 2 C45.36670806 6.34242782 43.81166923 9.76375477 41.859375 13.6796875 C41.38163383 14.6413105 41.38163383 14.6413105 40.89424133 15.62236023 C39.8533336 17.71025443 38.80250616 19.79293099 37.75 21.875 C37.21244583 22.94462479 37.21244583 22.94462479 36.66403198 24.03585815 C30.17970368 36.92705167 23.29850476 49.55005582 16 62 C15.57106445 62.74040527 15.14212891 63.48081055 14.70019531 64.24365234 C-0.36433348 90.24288899 -0.36433348 90.24288899 -9 96 C-12.0625 96.3125 -12.0625 96.3125 -15 96 C-19.42268784 89.36596825 -18.07215053 80.79343782 -16.875 73.25 C-16.74246826 72.36546143 -16.60993652 71.48092285 -16.47338867 70.56958008 C-14.8520165 60.2677697 -12.47039606 50.12642466 -10 40 C-11.09699219 40.02578125 -12.19398438 40.0515625 -13.32421875 40.078125 C-17.32646942 39.99306122 -18.91075275 39.4713978 -22 37 C-24.27934743 34.06941044 -24.42397957 30.92794042 -24.30859375 27.26953125 C-22.86856649 16.67895104 -15.78008881 7.64645868 -7.7109375 1.01953125 C-5.11732408 -0.52597812 -2.92228457 -0.4276514 0 0 Z M-9.8984375 7.796875 C-15.11692446 13.2675565 -20.26674602 21.34682406 -20.3125 29.125 C-20.28194163 32.79897988 -20.28194163 32.79897988 -18.9375 34.9375 C-16.06692435 36.51168665 -13.2252528 36.69573087 -10 37 C-9.67 37.99 -9.34 38.98 -9 40 C-7.99293324 35.85809357 -6.99642397 31.71382602 -6.00927734 27.56713867 C-5.67259332 26.15923133 -5.33312179 24.75198736 -4.99072266 23.34545898 C-4.49673339 21.31405416 -4.0130909 19.2804099 -3.53125 17.24609375 C-3.23798828 16.02591553 -2.94472656 14.8057373 -2.64257812 13.54858398 C-1.9914126 9.9525768 -1.88548991 6.64591961 -2 3 C-5.43746888 3 -7.42838013 5.58729641 -9.8984375 7.796875 Z " fill="#FDFDFD" transform="translate(189,199)"/>
<path d="M0 0 C0.99 0.33 1.98 0.66 3 1 C2.72285156 2.05058594 2.44570312 3.10117188 2.16015625 4.18359375 C0.27374249 11.45234401 -1.46308217 18.48315044 -2 26 C5.17278968 19.44202087 8.63586714 12.37964907 11 3 C12.32 3 13.64 3 15 3 C15.66 4.65 16.32 6.3 17 8 C19.79580601 8.99406436 21.10468675 9.3986662 24 9 C26.98848509 7.09009797 29.64755392 4.98087117 32.3515625 2.6875 C35 1 35 1 37.7734375 1.125 C40 2 40 2 41 4 C41.13415472 6.6723621 41.04318541 9.32250488 41 12 C42.27450447 11.40361667 43.54446877 10.79752584 44.8125 10.1875 C45.52019531 9.85105469 46.22789062 9.51460938 46.95703125 9.16796875 C49.01129035 7.99354529 50.41616278 6.74371984 52 5 C52.99 5.33 53.98 5.66 55 6 C53.4849552 10.09062097 50.61144976 12.7018047 47 15 C44.67891331 15.70812814 42.34622853 16.38024152 40 17 C39.484375 17.53625 38.96875 18.0725 38.4375 18.625 C37 20 37 20 34 20.375 C31 20 31 20 29.1875 18.8125 C27.72461964 16.57968261 27.35494045 14.62655933 27 12 C25.96875 12.391875 24.9375 12.78375 23.875 13.1875 C19.25783267 14.15561573 17.98643319 13.24166286 14 11 C13.56429687 11.86882812 13.12859375 12.73765625 12.6796875 13.6328125 C5.10504562 28.2902364 5.10504562 28.2902364 -0.98828125 30.828125 C-3 31 -3 31 -4.73828125 29.94921875 C-6.53087674 27.17985296 -6.29283843 25.07799128 -6.1875 21.8125 C-6.16042969 20.72582031 -6.13335937 19.63914062 -6.10546875 18.51953125 C-6.07066406 17.68808594 -6.03585938 16.85664063 -6 16 C-6.42410156 16.433125 -6.84820312 16.86625 -7.28515625 17.3125 C-10.63890417 20.49671781 -12.18370188 21.92225732 -16.9375 22.375 C-18.4534375 22.189375 -18.4534375 22.189375 -20 22 C-21.27959591 19.44080818 -21.16816536 17.54515972 -21.1875 14.6875 C-21.20167969 13.74261719 -21.21585938 12.79773438 -21.23046875 11.82421875 C-20.98824335 8.85593118 -20.24026607 6.69132835 -19 4 C-18.01 4.33 -17.02 4.66 -16 5 C-16.33 9.29 -16.66 13.58 -17 18 C-9.047555 14.0237775 -3.5828849 8.14292022 0 0 Z M36 5 C36.33 6.65 36.66 8.3 37 10 C37.33 8.68 37.66 7.36 38 6 C37.34 5.67 36.68 5.34 36 5 Z M32 8 C31.31506627 10.85778033 31.31506627 10.85778033 31 14 C31.99 15.485 31.99 15.485 33 17 C34.32 16.34 35.64 15.68 37 15 C35.02 11.535 35.02 11.535 33 8 C32.67 8 32.34 8 32 8 Z " fill="#FDFDFD" transform="translate(241,247)"/>
<path d="M0 0 C2.0625 0.4375 2.0625 0.4375 4 1 C4 10.43893812 0.28211115 17.22501897 -4.10107422 25.33105469 C-5.10829976 27.20106929 -6.06581774 29.09250742 -7 31 C-5.329375 30.9690625 -5.329375 30.9690625 -3.625 30.9375 C0 31 0 31 2 32 C1.67 32.99 1.34 33.98 1 35 C-3.95 35.495 -3.95 35.495 -9 36 C-9.19251343 37.72283203 -9.19251343 37.72283203 -9.38891602 39.48046875 C-9.93364949 43.82545901 -10.8052139 48.04579544 -11.77734375 52.3125 C-12.12976032 53.89969452 -12.48196692 55.48693567 -12.83398438 57.07421875 C-13.38180157 59.52491584 -13.93185664 61.97506073 -14.48608398 64.42431641 C-16.92818523 75.2485872 -18.85125937 85.95990774 -20 97 C-21.98 97.495 -21.98 97.495 -24 98 C-24.63557059 87.89338576 -22.28616656 78.44503733 -20.1875 68.625 C-19.82661643 66.89340766 -19.4665843 65.16163765 -19.10742188 63.4296875 C-17.25758264 54.56934737 -15.3031139 45.75514667 -13 37 C-14.65 37 -16.3 37 -18 37 C-18 35.68 -18 34.36 -18 33 C-15.03 32.505 -15.03 32.505 -12 32 C-11.84442627 31.41621582 -11.68885254 30.83243164 -11.52856445 30.23095703 C-4.64618501 4.64618501 -4.64618501 4.64618501 0 0 Z " fill="#FCFCFC" transform="translate(327,218)"/>
<path d="M0 0 C2.125 1.6875 2.125 1.6875 3.125 4.6875 C0.94123234 5.82027268 -1.24657128 6.94372789 -3.4375 8.0625 C-4.04658203 8.37960938 -4.65566406 8.69671875 -5.28320312 9.0234375 C-9.41201886 11.12061374 -13.38582113 12.54353936 -17.875 13.6875 C-18.36301743 6.48924292 -18.36301743 6.48924292 -16.125 2.8125 C-11.28457585 -1.75901169 -6.2981334 -2.87523481 0 0 Z " fill="#FDFDFD" transform="translate(105.875,158.3125)"/>
<path d="M0 0 C2.27155498 0.08702126 4.54230743 0.19519522 6.8125 0.3125 C8.07707031 0.37050781 9.34164062 0.42851562 10.64453125 0.48828125 C14 1 14 1 15.94921875 2.54296875 C16.29597656 3.02378906 16.64273438 3.50460938 17 4 C14.36 4 11.72 4 9 4 C14.28 6.97 19.56 9.94 25 13 C25 13.66 25 14.32 25 15 C21.7 15 18.4 15 15 15 C15.66 15.66 16.32 16.32 17 17 C10.02013687 16.68978386 4.92708478 13.5048042 -1 10 C-1 9.34 -1 8.68 -1 8 C3.62 8.66 8.24 9.32 13 10 C11.59234375 9.16855469 11.59234375 9.16855469 10.15625 8.3203125 C8.93727016 7.5889246 7.71853255 6.85713286 6.5 6.125 C5.87996094 5.76019531 5.25992188 5.39539063 4.62109375 5.01953125 C3.04632542 4.0677482 1.51870947 3.03889741 0 2 C0 1.34 0 0.68 0 0 Z " fill="#F5F6F5" transform="translate(96,237)"/>
<path d="M0 0 C1.125 6.75 1.125 6.75 0 9 C-2.9737344 10.09036928 -3.88407501 10.03864166 -7 9 C-8.33078101 2.58805513 -8.33078101 2.58805513 -6.875 0 C-4.28103624 -1.38344734 -2.74857743 -0.81714464 0 0 Z M-5 1 C-5.33 2.65 -5.66 4.3 -6 6 C-4.515 6.99 -4.515 6.99 -3 8 C-2.34 7.34 -1.68 6.68 -1 6 C-1.32041397 3.39719432 -1.32041397 3.39719432 -2 1 C-2.99 1 -3.98 1 -5 1 Z " fill="#F7F8F7" transform="translate(305,321)"/>
<path d="M0 0 C6.875 0.875 6.875 0.875 8 2 C8.23529412 7.52941176 8.23529412 7.52941176 7 10 C4.69 10 2.38 10 0 10 C0 6.7 0 3.4 0 0 Z M2 2 C2 4.31 2 6.62 2 9 C3.32 8.67 4.64 8.34 6 8 C6 6.35 6 4.7 6 3 C4.68 2.67 3.36 2.34 2 2 Z " fill="#F4F5F4" transform="translate(425,320)"/>
<path d="M0 0 C2.97 0.495 2.97 0.495 6 1 C6.91058531 4.07322544 7.08886184 6.80097361 7 10 C6.34 10 5.68 10 5 10 C4.67 8.68 4.34 7.36 4 6 C3.34 6 2.68 6 2 6 C2 7.32 2 8.64 2 10 C1.34 10 0.68 10 0 10 C0 6.7 0 3.4 0 0 Z M2 2 C2 2.99 2 3.98 2 5 C2.99 4.67 3.98 4.34 5 4 C4.67 3.34 4.34 2.68 4 2 C3.34 2 2.68 2 2 2 Z " fill="#F9FAF8" transform="translate(396,320)"/>
<path d="M0 0 C2.00720923 0.28674418 4.0085944 0.61866701 6 1 C6.33 3.97 6.66 6.94 7 10 C4.00667261 9.0022242 3.05233685 8.2477975 1 6 C1 7.32 1 8.64 1 10 C0.34 10 -0.32 10 -1 10 C-1.02689216 8.52093108 -1.04634621 7.04172517 -1.0625 5.5625 C-1.07410156 4.73878906 -1.08570313 3.91507812 -1.09765625 3.06640625 C-1 1 -1 1 0 0 Z M1 2 C1 2.99 1 3.98 1 5 C1.99 4.67 2.98 4.34 4 4 C4 3.34 4 2.68 4 2 C3.01 2 2.02 2 1 2 Z " fill="#FAFBFA" transform="translate(330,320)"/>
<path d="M0 0 C0.66 0 1.32 0 2 0 C5 6.625 5 6.625 5 10 C4.34 10 3.68 10 3 10 C3 9.34 3 8.68 3 8 C1.68 8 0.36 8 -1 8 C-1 8.66 -1 9.32 -1 10 C-1.66 10 -2.32 10 -3 10 C-2.49287967 6.28111761 -1.88391785 3.26545761 0 0 Z " fill="#FBFBFB" transform="translate(443,320)"/>
<path d="M0 0 C0.66 0 1.32 0 2 0 C5 6.625 5 6.625 5 10 C4.34 10 3.68 10 3 10 C3 9.34 3 8.68 3 8 C1.68 8 0.36 8 -1 8 C-1 8.66 -1 9.32 -1 10 C-1.66 10 -2.32 10 -3 10 C-2.49287967 6.28111761 -1.88391785 3.26545761 0 0 Z " fill="#F9F9F9" transform="translate(234,320)"/>
<path d="M0 0 C0.99 0.495 0.99 0.495 2 1 C2.40729228 3.32156597 2.74438677 5.6568787 3 8 C3.33 8 3.66 8 4 8 C4.185625 6.2984375 4.185625 6.2984375 4.375 4.5625 C4.58125 3.386875 4.7875 2.21125 5 1 C5.66 0.67 6.32 0.34 7 0 C7 2.97 7 5.94 7 9 C5.02 9.99 5.02 9.99 3 11 C2.01 10.67 1.02 10.34 0 10 C0 6.7 0 3.4 0 0 Z " fill="#FBFCFC" transform="translate(314,320)"/>
<path d="M0 0 C1.4540625 0.0309375 1.4540625 0.0309375 2.9375 0.0625 C2.9375 0.7225 2.9375 1.3825 2.9375 2.0625 C1.2875 2.0625 -0.3625 2.0625 -2.0625 2.0625 C-2.0625 2.7225 -2.0625 3.3825 -2.0625 4.0625 C-0.7425 4.0625 0.5775 4.0625 1.9375 4.0625 C1.9375 4.7225 1.9375 5.3825 1.9375 6.0625 C0.6175 6.0625 -0.7025 6.0625 -2.0625 6.0625 C-2.0625 7.0525 -2.0625 8.0425 -2.0625 9.0625 C-0.4125 9.0625 1.2375 9.0625 2.9375 9.0625 C2.9375 9.3925 2.9375 9.7225 2.9375 10.0625 C0.6275 10.0625 -1.6825 10.0625 -4.0625 10.0625 C-4.08939216 8.58343108 -4.10884621 7.10422517 -4.125 5.625 C-4.13660156 4.80128906 -4.14820313 3.97757812 -4.16015625 3.12890625 C-4.00103255 -0.23815127 -3.43619093 0.07012635 0 0 Z " fill="#FAFAFA" transform="translate(357.0625,319.9375)"/>
<path d="M0 0 C1.4540625 0.0309375 1.4540625 0.0309375 2.9375 0.0625 C2.9375 0.7225 2.9375 1.3825 2.9375 2.0625 C1.2875 2.0625 -0.3625 2.0625 -2.0625 2.0625 C-2.0625 2.7225 -2.0625 3.3825 -2.0625 4.0625 C-0.7425 4.0625 0.5775 4.0625 1.9375 4.0625 C1.9375 4.7225 1.9375 5.3825 1.9375 6.0625 C0.6175 6.0625 -0.7025 6.0625 -2.0625 6.0625 C-2.0625 7.0525 -2.0625 8.0425 -2.0625 9.0625 C-0.4125 9.0625 1.2375 9.0625 2.9375 9.0625 C2.9375 9.3925 2.9375 9.7225 2.9375 10.0625 C0.6275 10.0625 -1.6825 10.0625 -4.0625 10.0625 C-4.08939216 8.58343108 -4.10884621 7.10422517 -4.125 5.625 C-4.13660156 4.80128906 -4.14820313 3.97757812 -4.16015625 3.12890625 C-4.00103255 -0.23815127 -3.43619093 0.07012635 0 0 Z " fill="#F7F7F5" transform="translate(179.0625,319.9375)"/>
<path d="M0 0 C1.2065625 0.0309375 1.2065625 0.0309375 2.4375 0.0625 C2.7675 0.7225 3.0975 1.3825 3.4375 2.0625 C1.7875 2.0625 0.1375 2.0625 -1.5625 2.0625 C-1.5625 2.7225 -1.5625 3.3825 -1.5625 4.0625 C-0.2425 4.0625 1.0775 4.0625 2.4375 4.0625 C2.4375 4.7225 2.4375 5.3825 2.4375 6.0625 C1.1175 6.0625 -0.2025 6.0625 -1.5625 6.0625 C-1.5625 7.0525 -1.5625 8.0425 -1.5625 9.0625 C0.0875 9.0625 1.7375 9.0625 3.4375 9.0625 C3.4375 9.3925 3.4375 9.7225 3.4375 10.0625 C1.1275 10.0625 -1.1825 10.0625 -3.5625 10.0625 C-3.58939216 8.58343108 -3.60884621 7.10422517 -3.625 5.625 C-3.63660156 4.80128906 -3.64820313 3.97757812 -3.66015625 3.12890625 C-3.51340586 0.02366796 -3.12550237 0.07623177 0 0 Z " fill="#F4F5F3" transform="translate(385.5625,319.9375)"/>
<path d="M0 0 C1.2065625 0.0309375 1.2065625 0.0309375 2.4375 0.0625 C2.7675 0.7225 3.0975 1.3825 3.4375 2.0625 C1.7875 2.0625 0.1375 2.0625 -1.5625 2.0625 C-1.5625 2.7225 -1.5625 3.3825 -1.5625 4.0625 C-0.2425 4.0625 1.0775 4.0625 2.4375 4.0625 C2.4375 4.7225 2.4375 5.3825 2.4375 6.0625 C1.1175 6.0625 -0.2025 6.0625 -1.5625 6.0625 C-1.5625 7.0525 -1.5625 8.0425 -1.5625 9.0625 C0.0875 9.0625 1.7375 9.0625 3.4375 9.0625 C3.4375 9.3925 3.4375 9.7225 3.4375 10.0625 C1.1275 10.0625 -1.1825 10.0625 -3.5625 10.0625 C-3.58939216 8.58343108 -3.60884621 7.10422517 -3.625 5.625 C-3.63660156 4.80128906 -3.64820313 3.97757812 -3.66015625 3.12890625 C-3.51340586 0.02366796 -3.12550237 0.07623177 0 0 Z " fill="#F8F9F8" transform="translate(263.5625,319.9375)"/>
<path d="M0 0 C0.66 0 1.32 0 2 0 C2.66 1.65 3.32 3.3 4 5 C4.99 3.35 5.98 1.7 7 0 C8.46726798 3.81489674 7.43336419 6.29011622 6 10 C4.68 9.67 3.36 9.34 2 9 C1.34 6.03 0.68 3.06 0 0 Z " fill="#F7F8F8" transform="translate(216,320)"/>
<path d="M0 0 C1.98 0 3.96 0 6 0 C6 0.66 6 1.32 6 2 C4.68 2 3.36 2 2 2 C2 2.66 2 3.32 2 4 C3.32 4 4.64 4 6 4 C6 4.66 6 5.32 6 6 C4.68 6 3.36 6 2 6 C2 6.99 2 7.98 2 9 C3.32 9.33 4.64 9.66 6 10 C4.02 10 2.04 10 0 10 C0 6.7 0 3.4 0 0 Z " fill="#F2F6F3" transform="translate(203,320)"/>
<path d="M0 0 C2.51083114 1.25541557 2.87125446 2.50063488 4 5 C4.66 3.35 5.32 1.7 6 0 C6.66 0 7.32 0 8 0 C7.49287967 3.71888239 6.88391785 6.73454239 5 10 C4.01 10 3.02 10 2 10 C0.68373308 6.38026598 0 3.90432869 0 0 Z " fill="#F8F9F9" transform="translate(367,320)"/>
<path d="M0 0 C3.40667322 0.44824648 5.07914607 1.05276405 8 3 C8 3.66 8 4.32 8 5 C5.36 5 2.72 5 0 5 C0 4.34 0 3.68 0 3 C-0.66 3 -1.32 3 -2 3 C-1 1 -1 1 0 0 Z " fill="#FBFBFB" transform="translate(113,247)"/>
<path d="M0 0 C3 1 3 1 4 3 C5.32 2.01 6.64 1.02 8 0 C7.39009109 3.55780196 6.4216319 6.6828589 5 10 C4.34 10 3.68 10 3 10 C2.690625 8.906875 2.38125 7.81375 2.0625 6.6875 C1.41662103 4.44592006 0.7376883 2.2130649 0 0 Z " fill="#FCFCFC" transform="translate(454,320)"/>
<path d="M0 0 C1.32 0.99 2.64 1.98 4 3 C4.99 2.01 5.98 1.02 7 0 C7 3.61029169 6.03907418 6.55806676 5 10 C4.34 10 3.68 10 3 10 C0 3.375 0 3.375 0 0 Z " fill="#FBFBFB" transform="translate(410,320)"/>
<path d="M0 0 C0.99 0.99 1.98 1.98 3 3 C4.32 2.01 5.64 1.02 7 0 C6.39009109 3.55780196 5.4216319 6.6828589 4 10 C3.34 10 2.68 10 2 10 C1.34 6.7 0.68 3.4 0 0 Z " fill="#FDFDFD" transform="translate(283,320)"/>
<path d="M0 0 C1.134375 0.020625 2.26875 0.04125 3.4375 0.0625 C3.4375 0.7225 3.4375 1.3825 3.4375 2.0625 C2.4475 2.0625 1.4575 2.0625 0.4375 2.0625 C0.4375 4.7025 0.4375 7.3425 0.4375 10.0625 C-0.2225 10.0625 -0.8825 10.0625 -1.5625 10.0625 C-1.5625 7.4225 -1.5625 4.7825 -1.5625 2.0625 C-2.5525 1.7325 -3.5425 1.4025 -4.5625 1.0625 C-3.5625 0.0625 -3.5625 0.0625 0 0 Z " fill="#F4F7F6" transform="translate(249.5625,319.9375)"/>
<path d="M0 0 C0.33 0 0.66 0 1 0 C1 2.97 1 5.94 1 9 C2.65 9 4.3 9 6 9 C6 9.33 6 9.66 6 10 C3.69 10 1.38 10 -1 10 C-1.02689216 8.52093108 -1.04634621 7.04172517 -1.0625 5.5625 C-1.07410156 4.73878906 -1.08570313 3.91507812 -1.09765625 3.06640625 C-1 1 -1 1 0 0 Z " fill="#FDFDFD" transform="translate(190,320)"/>
<path d="M0 0 C1.65 0 3.3 0 5 0 C5 0.99 5 1.98 5 3 C3.68 3 2.36 3 1 3 C1 3.66 1 4.32 1 5 C0.34 5 -0.32 5 -1 5 C-0.67 3.35 -0.34 1.7 0 0 Z " fill="#F5F5F5" transform="translate(441,325)"/>
<path d="M0 0 C0.99 0 1.98 0 3 0 C3 1.32 3 2.64 3 4 C1.35 4 -0.3 4 -2 4 C-1.34 2.68 -0.68 1.36 0 0 Z " fill="#FAFAFA" transform="translate(224,243)"/>
<path d="M0 0 C0.99 0 1.98 0 3 0 C3 1.32 3 2.64 3 4 C1.35 4 -0.3 4 -2 4 C-1.34 2.68 -0.68 1.36 0 0 Z " fill="#FCFCFC" transform="translate(415,243)"/>
<path d="M0 0 C3 0.3125 3 0.3125 6 1 C6.33 1.66 6.66 2.32 7 3 C4.125 3.125 4.125 3.125 1 3 C0.34 2.34 -0.32 1.68 -1 1 C-0.67 0.67 -0.34 0.34 0 0 Z " fill="#EEEFEF" transform="translate(106,238)"/>
</svg>
